<svg width="1000" height="1000" viewBox="0 0 1000 1000" fill="none" xmlns="http://www.w3.org/2000/svg">
<path d="M0 100C0 44.7715 44.7715 0 100 0H900C955.228 0 1000 44.7715 1000 100V900C1000 955.228 955.228 1000 900 1000H100C44.7715 1000 0 955.228 0 900V100Z" fill="url(#paint0_linear_243_2)"/>
<path d="M264.922 805C246.172 805 240.052 796.406 246.562 779.219L437.969 276.484C446.042 255.391 458.281 244.844 474.688 244.844H529.375C545.781 244.844 558.021 255.391 566.094 276.484L757.5 779.219C764.01 796.406 757.891 805 739.141 805H677.031C659.844 805 647.865 796.016 641.094 778.047L601.25 672.969H402.812L362.969 778.047C356.198 796.016 344.219 805 327.031 805H264.922ZM439.141 576.094H564.922L516.875 451.875C511.146 437.292 507.63 426.745 506.328 420.234C505.286 413.464 504.115 403.568 502.812 390.547H501.25C499.948 403.568 498.646 413.464 497.344 420.234C496.302 426.745 492.917 437.292 487.188 451.875L439.141 576.094Z" fill="#3864FF" fill-opacity="0.86"/>
<defs>
<linearGradient id="paint0_linear_243_2" x1="-403" y1="-591.5" x2="1000" y2="1099.5" gradientUnits="userSpaceOnUse">
<stop stop-color="#002DCD"/>
<stop offset="1" stop-color="#120159"/>
</linearGradient>
</defs>
</svg>
