<svg width="241" height="249" viewBox="0 0 241 249" fill="none" xmlns="http://www.w3.org/2000/svg">
<rect width="241" height="249" rx="18" fill="#104B44"/>
<path d="M152.344 164.785H171.094C170.117 173.77 167.546 181.81 163.379 188.906C159.212 196.003 153.32 201.634 145.703 205.801C138.086 209.902 128.581 211.953 117.188 211.953C108.854 211.953 101.27 210.391 94.4336 207.266C87.6628 204.141 81.8359 199.714 76.9531 193.984C72.0703 188.19 68.2943 181.257 65.625 173.184C63.0208 165.046 61.7188 155.996 61.7188 146.035V131.875C61.7188 121.914 63.0208 112.897 65.625 104.824C68.2943 96.6862 72.1029 89.7201 77.0508 83.9258C82.0638 78.1315 88.0859 73.6719 95.1172 70.5469C102.148 67.4219 110.059 65.8594 118.848 65.8594C129.59 65.8594 138.672 67.8776 146.094 71.9141C153.516 75.9505 159.277 81.5495 163.379 88.7109C167.546 95.8073 170.117 104.043 171.094 113.418H152.344C151.432 106.777 149.74 101.081 147.266 96.3281C144.792 91.5104 141.276 87.7995 136.719 85.1953C132.161 82.5911 126.204 81.2891 118.848 81.2891C112.533 81.2891 106.966 82.4935 102.148 84.9023C97.3958 87.3112 93.3919 90.7292 90.1367 95.1562C86.9466 99.5833 84.5378 104.889 82.9102 111.074C81.2826 117.259 80.4688 124.128 80.4688 131.68V146.035C80.4688 153.001 81.1849 159.544 82.6172 165.664C84.1146 171.784 86.3607 177.155 89.3555 181.777C92.3503 186.4 96.1589 190.046 100.781 192.715C105.404 195.319 110.872 196.621 117.188 196.621C125.195 196.621 131.576 195.352 136.328 192.812C141.081 190.273 144.661 186.628 147.07 181.875C149.544 177.122 151.302 171.426 152.344 164.785Z" fill="#D9D9D9"/>
<path d="M131.3 104.2V106.2C129.167 106.267 127.533 106.533 126.4 107C125.333 107.4 124.633 108.2 124.3 109.4C123.967 110.533 123.8 112.333 123.8 114.8V164.4C123.8 166.8 123.967 168.6 124.3 169.8C124.7 171 125.433 171.8 126.5 172.2C127.567 172.6 129.167 172.867 131.3 173V175C129.5 174.867 127.233 174.8 124.5 174.8C121.767 174.733 119 174.7 116.2 174.7C112.933 174.7 109.9 174.733 107.1 174.8C104.367 174.8 102.133 174.867 100.4 175V173C102.533 172.867 104.133 172.6 105.2 172.2C106.267 171.8 106.967 171 107.3 169.8C107.7 168.6 107.9 166.8 107.9 164.4V114.8C107.9 112.333 107.7 110.533 107.3 109.4C106.967 108.2 106.233 107.4 105.1 107C104.033 106.533 102.467 106.267 100.4 106.2V104.2C102.133 104.267 104.367 104.333 107.1 104.4C109.9 104.467 112.933 104.5 116.2 104.5C119 104.5 121.767 104.467 124.5 104.4C127.233 104.333 129.5 104.267 131.3 104.2Z" fill="#D9D9D9"/>
</svg>
